<svg width="1443" height="1274" viewBox="0 0 1443 1274" fill="none" xmlns="http://www.w3.org/2000/svg">
<path d="M1403.15 701.625C1403.15 702.073 1095.05 702.457 715.043 702.457C335.04 702.457 26.8686 702.073 26.8686 701.625C26.8686 701.176 334.944 700.664 715.043 700.664C1095.14 700.664 1403.15 701.144 1403.15 701.625Z" fill="#E0E0E0"/>
<path d="M444.82 585.376C430.154 581.276 416.475 574.236 404.615 564.683C392.755 555.131 382.963 543.265 375.833 529.809C368.704 516.352 364.386 501.586 363.143 486.408C361.9 471.231 363.757 455.959 368.602 441.522C376.128 419.105 390.667 399.281 396.88 376.416C403.957 350.476 399.73 322.967 395.374 296.355C391.019 269.742 386.568 242.393 393.197 216.293C399.826 190.193 420.674 165.759 447.638 163.901C472.489 162.204 495.483 180.618 505.859 203.292C516.235 225.965 516.331 251.969 513.897 276.948C511.463 301.927 506.756 326.554 508.229 351.469C511.239 401.843 539.453 449.304 536.154 499.678C534.425 525.906 524.273 542.687 506.884 562.414C491.896 579.419 467.013 590.628 444.948 585.408" fill="#F0F0F0"/>
<path d="M449.592 710.687C449.208 710.687 448.887 619.738 448.887 507.588C448.887 395.438 449.208 304.425 449.592 304.425C449.976 304.425 450.264 395.374 450.264 507.588C450.264 619.802 449.944 710.687 449.592 710.687Z" fill="#E0E0E0"/>
<path d="M494.714 465.508C494.939 465.796 485.107 473.898 472.714 483.538C460.32 493.177 450.104 500.831 449.88 500.511C449.656 500.19 459.487 492.152 471.881 482.481C484.274 472.809 494.49 465.22 494.714 465.508Z" fill="#E0E0E0"/>
<path d="M449.624 459.648C444.753 457.118 440.103 454.183 435.725 450.873C431.113 447.925 426.734 444.627 422.627 441.009C427.502 443.519 432.152 446.444 436.526 449.752C441.159 452.682 445.54 455.992 449.624 459.648V459.648Z" fill="#E0E0E0"/>
<path d="M171.811 315.409L116.953 426.054L133.318 426.662L86.8504 514.602H111.253L73.176 592.741H286.043L239.191 514.602L261.64 513.641L216.71 425.734L233.33 424.773L171.811 315.409Z" fill="#F0F0F0"/>
<path d="M173.893 443.379C174.341 443.379 173.893 500.831 173.188 571.669C172.484 642.507 171.267 699.959 170.819 699.959C170.37 699.959 170.819 642.507 171.523 571.637C172.228 500.767 173.413 443.347 173.893 443.379Z" fill="#E0E0E0"/>
<path d="M205.533 476.492C200.712 481.562 195.497 486.241 189.937 490.487C184.734 495.191 179.165 499.474 173.285 503.297C178.111 498.233 183.325 493.554 188.88 489.302C194.088 484.603 199.656 480.32 205.533 476.492V476.492Z" fill="#E0E0E0"/>
<path d="M114.391 101.806H270.511C270.511 101.806 270.511 66.0665 252.065 66.0665C245.46 65.8534 238.987 67.9498 233.762 71.9948C228.536 76.0397 224.884 81.7801 223.435 88.2274C223.435 88.2274 223.435 21.7446 189.873 31.3519C158.137 40.639 154.646 83.3277 154.646 83.3277C154.646 83.3277 148.914 61.8393 131.717 73.9445C114.52 86.0498 114.391 101.806 114.391 101.806Z" fill="#F0F0F0"/>
<path d="M1442.61 1224.33C1442.61 1224.78 1119.64 1225.16 721.352 1225.16C323.063 1225.16 0 1224.78 0 1224.33C0 1223.88 322.903 1223.5 721.352 1223.5C1119.8 1223.5 1442.61 1223.85 1442.61 1224.33Z" fill="#263238"/>
<path d="M614.742 267.693V855.662H1276.02V267.693H1204.47L1059.66 86.21L937.517 265.931L614.742 267.693Z" fill="#6168FF"/>
<g opacity="0.5">
<path d="M614.742 267.693V855.662H1276.02V267.693H1204.47L1059.66 86.21L937.517 265.931L614.742 267.693Z" fill="white"/>
</g>
<path d="M745.466 51.5595C742.264 55.9148 555.529 276.211 555.529 276.211H933.226L1059.66 86.21L1204.47 267.693L1336.93 267.533L1175.23 46.1473L745.466 51.5595Z" fill="#263238"/>
<path d="M870.938 831.292H714.242V855.694H870.938V831.292Z" fill="#E6E6E6"/>
<path d="M887.239 867.8H678.151V886.726H887.239V867.8Z" fill="#E6E6E6"/>
<path d="M724.65 594.887L725.931 829.979H860.53V594.887H724.65Z" fill="#6168FF"/>
<g opacity="0.2">
<path d="M724.65 594.887L725.931 829.979H860.53V594.887H724.65Z" fill="black"/>
</g>
<g opacity="0.4">
<path d="M830.363 718.373C833.635 718.373 836.288 715.721 836.288 712.449C836.288 709.177 833.635 706.524 830.363 706.524C827.091 706.524 824.439 709.177 824.439 712.449C824.439 715.721 827.091 718.373 830.363 718.373Z" fill="black"/>
</g>
<path d="M793.054 514.153L668.928 616.471V644.781L794.143 543.071L908.823 637.063V607.505L793.054 514.153Z" fill="#263238"/>
<path d="M860.338 21.1682H831.324V61.359H860.338V21.1682Z" fill="#6168FF"/>
<path d="M910.52 0H879.937V61.3589H910.52V0Z" fill="#6168FF"/>
<g opacity="0.4">
<path d="M860.338 21.1682H831.324V61.359H860.338V21.1682Z" fill="black"/>
<path d="M910.52 0H879.937V61.3589H910.52V0Z" fill="black"/>
</g>
<path d="M1081.37 180.714H1047.17V214.916H1081.37V180.714Z" fill="white"/>
<g opacity="0.1">
<path d="M933.226 276.211H951.448L1071.09 100.557L1059.66 86.21L933.226 276.211Z" fill="black"/>
</g>
<g opacity="0.1">
<path d="M614.742 276.211V295.202L933.226 276.211H614.742Z" fill="black"/>
</g>
<g opacity="0.1">
<path d="M1204.47 267.693L1276.02 291.423V267.693H1204.47Z" fill="black"/>
</g>
<path d="M879.937 846.311H697.814V869.977H879.937V846.311Z" fill="#E6E6E6"/>
<path d="M875.165 846.631C875.165 847.08 835.775 847.464 787.194 847.464C738.613 847.464 699.255 847.08 699.255 846.631C699.255 846.183 738.613 845.799 787.194 845.799C835.775 845.799 875.165 846.151 875.165 846.631Z" fill="#E0E0E0"/>
<path d="M875.165 867.8C875.165 868.248 835.775 868.632 787.194 868.632C738.613 868.632 699.255 868.248 699.255 867.8C699.255 867.351 738.613 866.967 787.194 866.967C835.775 866.967 875.165 867.191 875.165 867.8Z" fill="#E0E0E0"/>
<path d="M866.006 308.78H714.242V452.954H866.006V308.78Z" fill="white"/>
<path d="M782.903 308.78C782.903 308.78 739.862 382.148 716.292 382.789C716.292 382.789 738.133 393.933 739.798 452.954H714.178V308.844L782.903 308.78Z" fill="#6168FF"/>
<path d="M797.346 308.78C797.346 308.78 840.355 382.148 863.957 382.789C863.957 382.789 842.084 393.933 840.451 452.954H866.07V308.844L797.346 308.78Z" fill="#6168FF"/>
<path d="M791.293 307.499H786.49V461.281H791.293V307.499Z" fill="#263238"/>
<path d="M712 381.988V386.792H865.782V381.988H712Z" fill="#263238"/>
<path d="M873.628 452.954H704.122V456.541H873.628V452.954Z" fill="#263238"/>
<path d="M1182.86 308.78H1031.09V452.954H1182.86V308.78Z" fill="white"/>
<path d="M1099.75 308.78C1099.75 308.78 1056.74 382.148 1033.14 382.789C1033.14 382.789 1055.01 393.933 1056.65 452.954H1031.03V308.844L1099.75 308.78Z" fill="#6168FF"/>
<path d="M1114.2 308.78C1114.2 308.78 1157.21 382.148 1180.81 382.789C1180.81 382.789 1158.97 393.933 1157.3 452.954H1182.92V308.844L1114.2 308.78Z" fill="#6168FF"/>
<path d="M1108.14 307.499H1103.34V461.281H1108.14V307.499Z" fill="#263238"/>
<path d="M1028.85 381.988V386.792H1182.63V381.988H1028.85Z" fill="#263238"/>
<path d="M1190.51 452.954H1021V456.541H1190.51V452.954Z" fill="#263238"/>
<path d="M1182.86 613.237H1031.09V757.411H1182.86V613.237Z" fill="white"/>
<path d="M1099.75 613.237C1099.75 613.237 1056.74 686.637 1033.14 687.278C1033.14 687.278 1055.01 698.422 1056.65 757.411H1031.03V613.301L1099.75 613.237Z" fill="#6168FF"/>
<path d="M1114.2 613.237C1114.2 613.237 1157.21 686.637 1180.81 687.278C1180.81 687.278 1158.97 698.422 1157.3 757.411H1182.92V613.301L1114.2 613.237Z" fill="#6168FF"/>
<path d="M1108.14 611.956H1103.34V765.738H1108.14V611.956Z" fill="#263238"/>
<path d="M1028.85 686.477V691.281H1182.63V686.477H1028.85Z" fill="#263238"/>
<path d="M1190.51 757.411H1021V760.998H1190.51V757.411Z" fill="#263238"/>
<path d="M630.114 740.63V1222.02H671.426V772.975H985.746V740.63H630.114Z" fill="#455A64"/>
<path d="M671.426 772.975H658.071V1222.02H671.426V772.975Z" fill="#263238"/>
<path d="M985.746 740.631H960.607V772.975H985.746V740.631Z" fill="#263238"/>
<path d="M993.144 796.545H689.872V987.796H993.144V796.545Z" fill="#6168FF"/>
<path d="M993.144 796.545H689.872V987.796H993.144V796.545Z" fill="#6168FF"/>
<path d="M993.176 796.545H976.427V987.796H993.176V796.545Z" fill="#6168FF"/>
<g opacity="0.2">
<path d="M993.176 796.545H976.427V987.796H993.176V796.545Z" fill="black"/>
</g>
<path d="M960.607 971.303C960.607 971.303 960.607 970.278 960.607 968.389C960.607 966.499 960.607 963.649 960.607 960.03C960.607 952.665 960.607 941.936 960.447 928.198C960.447 900.689 960.254 861.171 960.094 812.91L960.767 813.55L707.773 813.742L708.606 812.91C708.606 869.081 708.606 922.626 708.606 971.367L707.837 970.598L889.736 970.951L941.904 971.175H955.835H959.422H960.671H955.995H942.225L890.185 971.399L707.645 971.783H706.877V971.015C706.877 922.273 706.877 868.728 706.877 812.557V811.693H707.741L960.735 811.885H961.375V812.75C961.375 861.235 961.119 900.913 961.055 928.518C961.055 942.193 961.055 952.857 960.863 960.19V968.421C960.639 970.374 960.607 971.303 960.607 971.303Z" fill="#263238"/>
<path d="M748.444 772.975H739.446V796.545H748.444V772.975Z" fill="#6168FF"/>
<path d="M896.558 772.975H887.559V796.545H896.558V772.975Z" fill="#6168FF"/>
<path d="M790.076 852.3V862.356H810.22V872.347H790.076V887.975H777.266V842.308H813.07V852.3H790.076Z" fill="#6168FF"/>
<path opacity="0.2" d="M790.076 852.3V862.356H810.22V872.347H790.076V887.975H777.266V842.308H813.07V852.3H790.076Z" fill="black"/>
<path d="M816.304 865.142C816.304 851.467 827.065 841.412 841.668 841.412C856.271 841.412 867.063 851.467 867.063 865.142C867.063 878.816 856.303 888.904 841.668 888.904C827.033 888.904 816.304 878.848 816.304 865.142ZM853.997 865.142C853.859 862.73 853.018 860.412 851.578 858.473C850.137 856.535 848.16 855.06 845.891 854.233C843.622 853.405 841.16 853.261 838.809 853.817C836.459 854.373 834.323 855.606 832.665 857.362C831.007 859.119 829.901 861.323 829.482 863.702C829.063 866.081 829.35 868.53 830.307 870.747C831.265 872.965 832.851 874.853 834.87 876.179C836.889 877.505 839.252 878.21 841.668 878.208C843.355 878.225 845.027 877.893 846.58 877.233C848.132 876.572 849.532 875.598 850.69 874.371C851.848 873.144 852.739 871.69 853.308 870.102C853.878 868.514 854.112 866.825 853.997 865.142V865.142Z" fill="#6168FF"/>
<path opacity="0.2" d="M816.304 865.142C816.304 851.467 827.065 841.412 841.668 841.412C856.271 841.412 867.063 851.467 867.063 865.142C867.063 878.816 856.303 888.904 841.668 888.904C827.033 888.904 816.304 878.848 816.304 865.142ZM853.997 865.142C853.859 862.73 853.018 860.412 851.578 858.473C850.137 856.535 848.16 855.06 845.891 854.233C843.622 853.405 841.16 853.261 838.809 853.817C836.459 854.373 834.323 855.606 832.665 857.362C831.007 859.119 829.901 861.323 829.482 863.702C829.063 866.081 829.35 868.53 830.307 870.747C831.265 872.965 832.851 874.853 834.87 876.179C836.889 877.505 839.252 878.21 841.668 878.208C843.355 878.225 845.027 877.893 846.58 877.233C848.132 876.572 849.532 875.598 850.69 874.371C851.848 873.144 852.739 871.69 853.308 870.102C853.878 868.514 854.112 866.825 853.997 865.142V865.142Z" fill="black"/>
<path d="M893.804 875.838H886.758V887.975H873.948V842.308H894.828C907.286 842.308 915.1 848.713 915.1 859.217C915.222 862.237 914.436 865.225 912.844 867.794C911.251 870.362 908.924 872.395 906.165 873.628L916.029 887.975H902.098L893.804 875.838ZM893.804 852.492H886.63V865.878H893.804C899.152 865.878 901.842 863.38 901.842 859.217C901.842 855.054 899.28 852.492 893.932 852.492H893.804Z" fill="#6168FF"/>
<path opacity="0.2" d="M893.804 875.838H886.758V887.975H873.948V842.308H894.828C907.286 842.308 915.1 848.713 915.1 859.217C915.222 862.237 914.436 865.225 912.844 867.794C911.251 870.362 908.924 872.395 906.165 873.628L916.029 887.975H902.098L893.804 875.838ZM893.804 852.492H886.63V865.878H893.804C899.152 865.878 901.842 863.38 901.842 859.217C901.842 855.054 899.28 852.492 893.932 852.492H893.804Z" fill="black"/>
<path d="M753.76 948.79L758.212 938.798C762.932 941.811 768.401 943.442 774 943.506C779.604 943.506 781.814 941.937 781.814 939.631C781.814 932.041 754.561 937.581 754.561 919.776C754.561 911.225 761.542 904.244 775.793 904.244C781.841 904.145 787.815 905.589 793.151 908.439L788.987 918.495C784.932 916.178 780.366 914.901 775.697 914.78C770.029 914.78 767.979 916.701 767.979 919.103C767.979 926.405 795.136 920.96 795.136 938.606C795.136 946.932 788.155 954.042 773.936 954.042C766.851 954.219 759.859 952.399 753.76 948.79V948.79Z" fill="#6168FF"/>
<path opacity="0.2" d="M753.76 948.79L758.212 938.798C762.932 941.811 768.401 943.442 774 943.506C779.604 943.506 781.814 941.937 781.814 939.631C781.814 932.041 754.561 937.581 754.561 919.776C754.561 911.225 761.542 904.244 775.793 904.244C781.841 904.145 787.815 905.589 793.151 908.439L788.987 918.495C784.932 916.178 780.366 914.901 775.697 914.78C770.029 914.78 767.979 916.701 767.979 919.103C767.979 926.405 795.136 920.96 795.136 938.606C795.136 946.932 788.155 954.042 773.936 954.042C766.851 954.219 759.859 952.399 753.76 948.79V948.79Z" fill="black"/>
<path d="M833.469 943.794H813.198L809.451 953.113H795.617L816.753 905.076H830.107L851.307 953.113H837.216L833.469 943.794ZM829.498 933.802L823.318 918.431L817.169 933.738L829.498 933.802Z" fill="#6168FF"/>
<path opacity="0.2" d="M833.469 943.794H813.198L809.451 953.113H795.617L816.753 905.076H830.107L851.307 953.113H837.216L833.469 943.794ZM829.498 933.802L823.318 918.431L817.169 933.738L829.498 933.802Z" fill="black"/>
<path d="M855.15 905.204H868.696V942.353H891.562V953.113H855.15V905.204Z" fill="#6168FF"/>
<path opacity="0.2" d="M855.15 905.204H868.696V942.353H891.562V953.113H855.15V905.204Z" fill="black"/>
<path d="M935.339 942.641V953.113H896.91V905.076H934.443V915.548H910.296V923.619H931.56V933.738H910.296V942.513L935.339 942.641Z" fill="#6168FF"/>
<path opacity="0.2" d="M935.339 942.641V953.113H896.91V905.076H934.443V915.548H910.296V923.619H931.56V933.738H910.296V942.513L935.339 942.641Z" fill="black"/>
<path d="M954.65 825.944C954.49 825.944 954.458 825.335 954.106 824.374C953.641 823.074 952.778 821.954 951.64 821.172C950.824 820.589 949.875 820.219 948.879 820.096C947.884 819.973 946.873 820.101 945.94 820.468C944.818 820.896 943.852 821.655 943.172 822.645C942.491 823.634 942.127 824.807 942.129 826.008C942.136 827.207 942.504 828.376 943.183 829.363C943.862 830.351 944.823 831.112 945.94 831.548C946.876 831.898 947.884 832.017 948.876 831.894C949.868 831.771 950.817 831.411 951.64 830.843C952.769 830.053 953.63 828.935 954.106 827.641C954.458 826.68 954.49 826.104 954.65 826.104C954.81 826.104 954.906 826.68 954.65 827.801C954.379 829.407 953.523 830.855 952.248 831.868C951.293 832.642 950.157 833.159 948.947 833.372C947.737 833.585 946.493 833.486 945.331 833.085C943.888 832.57 942.639 831.621 941.756 830.368C940.873 829.116 940.399 827.62 940.399 826.088C940.399 824.555 940.873 823.06 941.756 821.807C942.639 820.555 943.888 819.606 945.331 819.09C946.493 818.689 947.737 818.591 948.947 818.804C950.157 819.016 951.293 819.534 952.248 820.307C953.523 821.32 954.379 822.769 954.65 824.374C954.906 825.335 954.714 825.944 954.65 825.944Z" fill="#263238"/>
<path d="M951.608 821.941C951.928 822.261 950.743 824.054 948.918 825.976C947.092 827.897 945.395 829.178 945.043 828.89C944.691 828.602 945.907 826.776 947.733 824.855C949.558 822.933 951.256 821.62 951.608 821.941Z" fill="#263238"/>
<path d="M952.312 828.441C952.312 828.858 949.846 828.441 947.637 826.456C945.427 824.47 944.434 822.517 944.787 822.261C945.139 822.005 946.676 823.51 948.694 825.175C950.711 826.84 952.504 827.993 952.312 828.441Z" fill="#263238"/>
<path d="M952.184 960.959C952.184 960.959 951.992 960.351 951.672 959.39C951.196 958.096 950.335 956.978 949.206 956.187C948.388 955.607 947.44 955.239 946.445 955.116C945.45 954.993 944.44 955.119 943.506 955.483C942.384 955.911 941.418 956.67 940.738 957.66C940.057 958.649 939.694 959.822 939.695 961.023C939.713 962.194 940.075 963.334 940.736 964.302C941.396 965.27 942.326 966.023 943.409 966.467C944.346 966.817 945.354 966.936 946.346 966.813C947.338 966.691 948.287 966.33 949.11 965.763C950.23 964.962 951.087 963.847 951.576 962.56C951.896 961.599 951.96 961.023 952.088 961.023C952.216 961.023 952.376 961.599 952.088 962.72C951.817 964.318 950.975 965.763 949.718 966.787C948.762 967.558 947.626 968.074 946.416 968.287C945.207 968.5 943.963 968.402 942.801 968.004C941.343 967.504 940.077 966.561 939.181 965.306C938.286 964.052 937.804 962.549 937.804 961.007C937.804 959.465 938.286 957.962 939.181 956.708C940.077 955.453 941.343 954.51 942.801 954.01C943.963 953.612 945.207 953.514 946.416 953.727C947.626 953.94 948.762 954.456 949.718 955.227C950.975 956.251 951.817 957.696 952.088 959.294C952.472 960.351 952.28 960.959 952.184 960.959Z" fill="#263238"/>
<path d="M949.142 956.86C949.494 957.18 948.309 958.974 946.484 960.895C944.658 962.816 942.961 964.097 942.609 963.809C942.257 963.521 943.474 961.696 945.267 959.774C947.06 957.853 948.822 956.636 949.142 956.86Z" fill="#263238"/>
<path d="M949.814 963.457C949.814 963.873 947.349 963.297 945.139 961.471C942.929 959.646 941.936 957.532 942.289 957.276C942.641 957.02 944.178 958.525 946.196 960.19C948.213 961.856 950.071 963.009 949.814 963.457Z" fill="#263238"/>
<path d="M727.917 957.693C727.917 957.693 727.725 957.116 727.372 956.155C726.896 954.861 726.036 953.744 724.906 952.953C724.083 952.385 723.135 952.025 722.143 951.902C721.15 951.78 720.143 951.898 719.206 952.248C718.092 952.688 717.134 953.45 716.455 954.437C715.776 955.424 715.407 956.591 715.395 957.789C715.414 958.981 715.79 960.141 716.475 961.117C717.16 962.093 718.123 962.842 719.238 963.265C720.172 963.631 721.182 963.759 722.178 963.636C723.173 963.513 724.122 963.143 724.938 962.56C726.077 961.779 726.94 960.658 727.404 959.358C727.757 958.397 727.789 957.789 727.949 957.789C728.109 957.789 728.205 958.397 727.949 959.518C727.678 961.124 726.822 962.572 725.547 963.585C724.592 964.358 723.456 964.876 722.246 965.089C721.036 965.302 719.791 965.203 718.63 964.802C717.186 964.287 715.937 963.338 715.054 962.085C714.171 960.832 713.697 959.337 713.697 957.805C713.697 956.272 714.171 954.777 715.054 953.524C715.937 952.271 717.186 951.322 718.63 950.807C719.791 950.406 721.036 950.307 722.246 950.52C723.456 950.733 724.592 951.251 725.547 952.024C726.822 953.037 727.678 954.486 727.949 956.091C728.173 957.116 727.981 957.725 727.917 957.693Z" fill="#263238"/>
<path d="M724.874 953.657C725.195 953.946 724.01 955.771 722.216 957.693C720.423 959.614 718.662 960.895 718.309 960.607C717.957 960.319 719.174 958.461 720.999 956.54C722.825 954.618 724.522 953.401 724.874 953.657Z" fill="#263238"/>
<path d="M725.643 960.222C725.483 960.639 723.177 960.03 720.967 958.237C718.758 956.444 717.765 954.266 718.117 954.042C718.469 953.818 720.007 955.291 722.024 956.924C724.042 958.557 725.643 959.774 725.643 960.222Z" fill="#263238"/>
<path d="M729.102 828.57C728.941 828.57 728.91 827.993 728.557 827.033C728.081 825.738 727.221 824.621 726.091 823.83C725.268 823.263 724.32 822.902 723.327 822.78C722.335 822.657 721.328 822.776 720.391 823.126C719.274 823.561 718.314 824.323 717.635 825.31C716.955 826.298 716.588 827.467 716.58 828.666C716.579 829.867 716.943 831.039 717.623 832.029C718.304 833.018 719.269 833.778 720.391 834.206C721.325 834.573 722.335 834.7 723.331 834.577C724.326 834.454 725.275 834.085 726.091 833.502C727.23 832.72 728.093 831.599 728.557 830.299C728.91 829.338 728.941 828.73 729.102 828.73C729.262 828.73 729.358 829.338 729.102 830.459C728.83 832.065 727.975 833.513 726.7 834.526C725.745 835.3 724.609 835.817 723.399 836.03C722.189 836.243 720.944 836.144 719.783 835.743C718.339 835.228 717.09 834.279 716.207 833.026C715.324 831.774 714.85 830.278 714.85 828.746C714.85 827.213 715.324 825.718 716.207 824.465C717.09 823.213 718.339 822.264 719.783 821.748C720.944 821.347 722.189 821.249 723.399 821.462C724.609 821.675 725.745 822.192 726.7 822.965C727.975 823.978 728.83 825.427 729.102 827.033C729.358 827.993 729.166 828.57 729.102 828.57Z" fill="#263238"/>
<path d="M726.059 824.599C726.38 824.887 725.195 826.712 723.369 828.634C721.544 830.555 719.846 831.836 719.494 831.548C719.142 831.26 720.359 829.402 722.184 827.481C724.01 825.559 725.643 824.278 726.059 824.599Z" fill="#263238"/>
<path d="M726.764 831.1C726.604 831.516 724.298 830.907 722.088 829.114C719.879 827.321 718.886 825.143 719.238 824.919C719.59 824.695 721.128 826.168 723.145 827.801C725.163 829.434 726.956 830.651 726.764 831.1Z" fill="#263238"/>
<path d="M777.234 852.3V862.356H797.378V872.347H777.234V887.975H764.425V842.308H800.26V852.3H777.234Z" fill="#FAFAFA"/>
<path d="M803.462 865.142C803.462 851.467 814.223 841.412 828.826 841.412C843.429 841.412 854.189 851.467 854.189 865.142C854.189 878.816 843.429 888.904 828.826 888.904C814.223 888.904 803.462 878.848 803.462 865.142ZM841.155 865.142C841.018 862.73 840.177 860.412 838.736 858.473C837.295 856.535 835.318 855.06 833.049 854.233C830.78 853.405 828.318 853.261 825.968 853.817C823.617 854.373 821.481 855.606 819.823 857.362C818.166 859.119 817.059 861.323 816.64 863.702C816.221 866.081 816.508 868.53 817.466 870.747C818.423 872.965 820.01 874.853 822.029 876.179C824.047 877.505 826.411 878.21 828.826 878.208C830.513 878.225 832.185 877.893 833.738 877.233C835.291 876.572 836.69 875.598 837.848 874.371C839.006 873.144 839.897 871.69 840.467 870.102C841.036 868.514 841.27 866.825 841.155 865.142V865.142Z" fill="#FAFAFA"/>
<path d="M880.962 875.838H873.916V887.975H861.107V842.308H881.987C894.444 842.308 902.29 848.713 902.29 859.217C902.412 862.237 901.626 865.225 900.034 867.794C898.441 870.362 896.115 872.395 893.355 873.628L903.187 887.975H889.352L880.962 875.838ZM880.962 852.492H873.916V865.878H881.09C886.438 865.878 889.096 863.38 889.096 859.217C889.096 855.054 886.438 852.492 881.09 852.492H880.962Z" fill="#FAFAFA"/>
<path d="M740.887 948.79L745.338 938.798C750.071 941.807 755.55 943.438 761.158 943.506C766.762 943.506 768.94 941.937 768.94 939.631C768.94 932.041 741.719 937.581 741.719 919.776C741.719 911.225 748.701 904.244 762.92 904.244C768.978 904.145 774.962 905.589 780.309 908.439L776.114 918.431C772.068 916.119 767.513 914.843 762.855 914.716C757.187 914.716 755.137 916.637 755.137 919.039C755.137 926.341 782.294 920.896 782.294 938.542C782.294 946.868 775.313 953.978 761.062 953.978C753.984 954.171 746.994 952.374 740.887 948.79V948.79Z" fill="#FAFAFA"/>
<path d="M820.596 943.794H800.356L796.577 953.113H782.775L803.911 905.076H817.265L838.465 953.113H824.375L820.596 943.794ZM816.625 933.802L810.476 918.431L804.327 933.738L816.625 933.802Z" fill="#FAFAFA"/>
<path d="M842.308 905.204H855.823V942.353H878.688V953.113H842.308V905.204Z" fill="#FAFAFA"/>
<path d="M922.466 942.641V953.113H884.036V905.076H921.601V915.548H897.454V923.619H918.719V933.738H897.454V942.513L922.466 942.641Z" fill="#FAFAFA"/>
<path d="M1108.24 1151.12C1089.02 1140.78 1081.31 1126.17 1076.76 1104.81C1074.57 1094.09 1074.71 1083.02 1077.15 1072.36C1079.6 1061.69 1084.3 1051.67 1090.95 1042.97C1102.12 1028.59 1118.52 1018.09 1126.17 1001.6C1134.31 983.985 1131.36 961.599 1143.75 946.708C1152.27 936.46 1165.98 932.393 1176.9 924.739C1185.77 918.334 1192.69 909.88 1200.63 902.322C1208.57 894.764 1218.28 888.359 1229.13 887.911C1245.53 887.271 1260 901.778 1262.66 917.95C1265.32 934.122 1258.02 950.743 1246.81 962.784C1238.71 971.463 1228.27 978.604 1223.56 989.525C1214.69 1010.05 1229.36 1035.42 1219.62 1055.53C1212.51 1070.23 1193.55 1079.03 1192.69 1095.33C1192.34 1101.32 1194.71 1107.12 1195.35 1113.08C1197.36 1131.75 1181.67 1148.78 1163.71 1154.19C1145.74 1159.61 1126.33 1156.02 1108.24 1150.99" fill="#6168FF"/>
<path d="M1201.49 957.628C1201.02 958.491 1200.45 959.297 1199.8 960.03L1194.58 966.659C1192.27 969.477 1189.49 973.064 1186.51 977.227C1183.53 981.39 1179.85 986.098 1176.42 991.638C1174.63 994.36 1172.74 997.211 1170.82 1000.19C1168.89 1003.17 1167.1 1006.59 1165.12 1009.8C1161.11 1016.2 1157.46 1023.66 1153.46 1031.28C1136.69 1064.78 1125.25 1100.68 1119.54 1137.7C1118.39 1146.25 1117.14 1154.35 1116.66 1162.01C1116.37 1165.82 1115.96 1169.5 1115.8 1173.06C1115.64 1176.61 1115.57 1180.04 1115.45 1183.3C1115.06 1189.71 1115.45 1195.73 1115.45 1200.89C1115.45 1206.04 1115.67 1210.49 1115.96 1214.18C1116.25 1217.86 1116.28 1220.58 1116.41 1222.6C1116.49 1223.58 1116.49 1224.56 1116.41 1225.55C1116.15 1224.59 1116 1223.62 1115.96 1222.63C1115.73 1220.49 1115.44 1217.7 1115.09 1214.24C1114.74 1210.78 1114.29 1206.14 1114.2 1200.95C1114.1 1195.76 1113.65 1189.81 1113.91 1183.27C1113.91 1180.07 1114.07 1176.55 1114.13 1172.99C1114.2 1169.44 1114.61 1165.69 1114.87 1161.85C1115.28 1154.16 1116.47 1146 1117.56 1137.38C1123.07 1100.09 1134.56 1063.93 1151.57 1030.29C1155.64 1022.64 1159.38 1015.3 1163.48 1008.77C1165.5 1005.57 1167.32 1002.37 1169.31 999.164L1175.07 990.646C1178.63 985.137 1182.38 980.526 1185.48 976.363C1188.59 972.199 1191.44 968.741 1193.87 965.987L1199.41 959.582C1200.03 958.855 1200.73 958.2 1201.49 957.628V957.628Z" fill="#263238"/>
<path d="M1024.05 1081.08C1027.89 1081.4 1031.63 1082.48 1035.05 1084.27C1038.46 1086.06 1041.48 1088.51 1043.93 1091.49C1048.8 1097.5 1052.22 1104.54 1053.93 1112.08C1057.64 1126.49 1055.14 1143.43 1050.92 1157.69C1035.38 1152.02 1025.94 1135.27 1021.68 1126.56C1014.92 1112.69 1011.17 1083.58 1024.05 1081.08Z" fill="#6168FF"/>
<path d="M1073.17 1175.33C1070.86 1171.69 1069.55 1167.5 1069.39 1163.19C1069.23 1158.88 1070.21 1154.6 1072.24 1150.8C1074.32 1147.03 1077.13 1143.7 1080.5 1141.03C1083.88 1138.36 1087.76 1136.39 1091.91 1135.24C1093.76 1134.5 1095.75 1134.18 1097.74 1134.29C1099.73 1134.4 1101.68 1134.94 1103.44 1135.88C1104.92 1137.03 1106.07 1138.55 1106.77 1140.3C1107.46 1142.05 1107.67 1143.95 1107.37 1145.8C1106.76 1149.49 1105.18 1152.95 1102.8 1155.83C1095.14 1166.01 1085.85 1174.47 1073.17 1175.43" fill="#6168FF"/>
<g opacity="0.2">
<path d="M1024.05 1081.08C1027.89 1081.4 1031.63 1082.48 1035.05 1084.27C1038.46 1086.06 1041.48 1088.51 1043.93 1091.49C1048.8 1097.5 1052.22 1104.54 1053.93 1112.08C1057.64 1126.49 1055.14 1143.43 1050.92 1157.69C1035.38 1152.02 1025.94 1135.27 1021.68 1126.56C1014.92 1112.69 1011.17 1083.58 1024.05 1081.08Z" fill="black"/>
</g>
<g opacity="0.2">
<path d="M1073.17 1175.33C1070.86 1171.69 1069.55 1167.5 1069.39 1163.19C1069.23 1158.88 1070.21 1154.6 1072.24 1150.8C1074.32 1147.03 1077.13 1143.7 1080.5 1141.03C1083.88 1138.36 1087.76 1136.39 1091.91 1135.24C1093.76 1134.5 1095.75 1134.18 1097.74 1134.29C1099.73 1134.4 1101.68 1134.94 1103.44 1135.88C1104.92 1137.03 1106.07 1138.55 1106.77 1140.3C1107.46 1142.05 1107.67 1143.95 1107.37 1145.8C1106.76 1149.49 1105.18 1152.95 1102.8 1155.83C1095.14 1166.01 1085.85 1174.47 1073.17 1175.43" fill="black"/>
</g>
<g opacity="0.2">
<path d="M1057 1189.45C1051.87 1181.95 1045.04 1175.78 1037.05 1171.45C1029.06 1167.11 1020.16 1164.75 1011.08 1164.54C1006.47 1164.54 1000.99 1165.56 999.164 1169.82C997.339 1174.08 1000.38 1178.79 1003.71 1181.99C1010.79 1188.56 1019.65 1192.88 1029.18 1194.42C1038.7 1195.96 1048.47 1194.64 1057.26 1190.64" fill="black"/>
</g>
<path d="M1057 1189.45C1051.87 1181.95 1045.04 1175.78 1037.05 1171.45C1029.06 1167.11 1020.16 1164.75 1011.08 1164.54C1006.47 1164.54 1000.99 1165.56 999.164 1169.82C997.339 1174.08 1000.38 1178.79 1003.71 1181.99C1010.79 1188.56 1019.65 1192.88 1029.18 1194.42C1038.7 1195.96 1048.47 1194.64 1057.26 1190.64" fill="#6168FF"/>
<path d="M1073.3 1224.74C1072.89 1223.79 1072.63 1222.77 1072.53 1221.73C1072.15 1219.75 1071.64 1216.9 1071.12 1213.34C1069.63 1204.05 1069.39 1194.59 1070.42 1185.23C1071.55 1175.76 1075.25 1166.78 1081.11 1159.25C1082.89 1157 1084.94 1154.99 1087.23 1153.27C1088.03 1152.58 1088.93 1152.02 1089.89 1151.6C1087.06 1154.17 1084.43 1156.97 1082.04 1159.96C1076.66 1167.53 1073.28 1176.35 1072.21 1185.58C1071.25 1194.8 1071.33 1204.11 1072.47 1213.31C1072.96 1217.1 1073.24 1220.92 1073.3 1224.74V1224.74Z" fill="#263238"/>
<path d="M1028.88 1103.02C1029.75 1104.5 1030.51 1106.04 1031.16 1107.63C1032.57 1110.64 1034.36 1115.06 1036.79 1120.44C1041.44 1131.36 1047.62 1146.54 1054.02 1163.45C1060.43 1180.36 1065.84 1195.86 1069.55 1207.13C1071.44 1212.74 1072.76 1217.31 1073.85 1220.49C1074.42 1222.11 1074.87 1223.78 1075.19 1225.48C1074.4 1223.95 1073.74 1222.36 1073.24 1220.71C1072.02 1217.31 1070.39 1212.86 1068.43 1207.52C1064.43 1196.34 1058.83 1180.97 1052.42 1164.06C1046.02 1147.15 1040.03 1132.03 1035.67 1120.89L1030.55 1107.82C1029.86 1106.27 1029.3 1104.67 1028.88 1103.02V1103.02Z" fill="#263238"/>
<path d="M1019.02 1175.84C1020.01 1175.7 1021.01 1175.7 1022 1175.84C1023.17 1175.89 1024.34 1176.03 1025.49 1176.26C1027.03 1176.49 1028.56 1176.81 1030.07 1177.22C1033.99 1178.23 1037.81 1179.61 1041.47 1181.35C1045.93 1183.56 1050.14 1186.25 1054.02 1189.36C1057.86 1192.52 1061.34 1196.09 1064.4 1200.02C1066.89 1203.23 1069.03 1206.68 1070.8 1210.33C1071.51 1211.71 1072.13 1213.14 1072.66 1214.59C1073.11 1215.63 1073.5 1216.7 1073.81 1217.8C1074.18 1218.74 1074.39 1219.73 1074.45 1220.74C1074.17 1220.74 1072.98 1216.74 1069.78 1210.75C1067.93 1207.26 1065.79 1203.94 1063.37 1200.82C1060.3 1197.06 1056.86 1193.61 1053.13 1190.51C1049.33 1187.5 1045.25 1184.85 1040.96 1182.6C1037.4 1180.83 1033.71 1179.36 1029.91 1178.21C1023.21 1176.48 1018.99 1176.16 1019.02 1175.84Z" fill="#263238"/>
<path d="M293.312 1214.46L292.512 1221.54C292.512 1221.54 273.841 1265.35 277.3 1268.65C279.654 1270.87 282.624 1272.32 285.819 1272.82C289.014 1273.32 292.285 1272.83 295.202 1271.44C303.464 1268.01 334.592 1228.24 334.592 1228.24L335.841 1222.41L293.312 1214.46Z" fill="#6168FF"/>
<path d="M278.549 1259.43C278.549 1259.43 288.477 1253.02 296.771 1265.83C296.771 1265.83 301.126 1263.4 312.239 1250.65C323.351 1237.91 334.047 1225.51 334.047 1225.51C334.047 1225.51 335.2 1224.26 334.976 1225.51C334.752 1226.76 334.496 1228.56 334.496 1228.56L313.232 1254.18C313.232 1254.18 300.422 1269.19 296.899 1270.8C293.27 1273.02 288.925 1273.77 284.762 1272.88C281.573 1272.24 278.725 1270.47 276.756 1267.88C276.66 1267.15 278.549 1259.43 278.549 1259.43Z" fill="#F0F0F0"/>
<path d="M298.917 1270.12C297.222 1266.28 294.378 1263.06 290.777 1260.89C287.176 1258.73 282.994 1257.74 278.805 1258.05C280 1257.6 281.28 1257.42 282.552 1257.54C285.639 1257.59 288.657 1258.46 291.295 1260.07C293.945 1261.62 296.151 1263.82 297.7 1266.47C298.407 1267.57 298.826 1268.82 298.917 1270.12V1270.12Z" fill="#263238"/>
<path d="M335.841 1223.46C335.254 1224.34 334.613 1225.17 333.919 1225.96L328.539 1232.56L309.997 1254.05C306.707 1258.13 303.075 1261.92 299.141 1265.38C295.812 1268.23 291.658 1269.92 287.292 1270.22C284.327 1270.32 281.423 1269.37 279.093 1267.53C278.24 1266.88 277.54 1266.05 277.044 1265.1C277.76 1265.86 278.531 1266.56 279.35 1267.21C281.645 1268.86 284.437 1269.67 287.26 1269.52C291.447 1269.12 295.403 1267.42 298.564 1264.65C302.429 1261.2 306.006 1257.44 309.261 1253.41L327.995 1232.08L333.759 1225.67C334.383 1224.87 335.08 1224.13 335.841 1223.46V1223.46Z" fill="#263238"/>
<path d="M299.461 1246.46C297.69 1246.02 295.987 1245.34 294.401 1244.44C292.692 1243.81 291.059 1243 289.533 1242.01C291.388 1242.09 293.198 1242.6 294.817 1243.51C296.569 1244.13 298.157 1245.14 299.461 1246.46V1246.46Z" fill="#263238"/>
<path d="M303.848 1239.86C301.806 1239.65 299.796 1239.2 297.86 1238.52C295.839 1238.16 293.871 1237.56 291.999 1236.72C296.153 1236.79 300.225 1237.89 303.848 1239.92V1239.86Z" fill="#263238"/>
<path d="M307.98 1234.16C307.787 1234.38 305.257 1232.85 301.767 1231.79C298.276 1230.73 295.362 1230.51 295.362 1230.22C297.655 1229.91 299.987 1230.11 302.199 1230.79C304.41 1231.47 306.448 1232.62 308.172 1234.16H307.98Z" fill="#263238"/>
<path d="M309.901 1227.82C309.741 1228.08 307.435 1226.92 304.393 1226.12C302.503 1225.78 300.632 1225.35 298.789 1224.81C300.748 1224.53 302.745 1224.65 304.656 1225.16C306.567 1225.68 308.352 1226.59 309.901 1227.82V1227.82Z" fill="#455A64"/>
<path d="M307.787 1222.44C306.55 1222.19 305.38 1221.68 304.361 1220.93C303.218 1220.24 302.145 1219.43 301.158 1218.53C300.614 1218.02 300.037 1217.44 299.461 1216.83C299.138 1216.51 298.858 1216.14 298.628 1215.75C298.473 1215.49 298.391 1215.2 298.391 1214.9C298.391 1214.6 298.473 1214.3 298.628 1214.05C298.96 1213.64 299.408 1213.35 299.912 1213.21C300.416 1213.06 300.951 1213.08 301.447 1213.25C302.285 1213.44 303.072 1213.81 303.752 1214.34C304.857 1215.21 305.699 1216.38 306.186 1217.7C306.734 1218.84 306.955 1220.12 306.827 1221.38C306.827 1221.38 306.474 1219.97 305.546 1217.99C305.012 1216.84 304.21 1215.84 303.208 1215.07C302.183 1214.3 300.23 1213.66 299.461 1214.59C299.173 1214.95 299.461 1215.59 300.166 1216.19C300.667 1216.78 301.201 1217.34 301.767 1217.86C302.715 1218.76 303.721 1219.59 304.777 1220.36C306.57 1221.67 307.851 1222.31 307.787 1222.44Z" fill="#455A64"/>
<path d="M307.115 1221.83C307.137 1220.52 307.55 1219.25 308.3 1218.18C309.009 1216.93 309.968 1215.84 311.118 1214.98C311.796 1214.46 312.539 1214.04 313.328 1213.73C313.782 1213.54 314.277 1213.46 314.769 1213.5C315.081 1213.52 315.382 1213.63 315.637 1213.81C315.891 1213.99 316.09 1214.24 316.21 1214.53C316.332 1215.02 316.335 1215.54 316.218 1216.04C316.102 1216.53 315.868 1216.99 315.537 1217.38C315.1 1218.1 314.56 1218.76 313.936 1219.33C312.891 1220.3 311.644 1221.02 310.285 1221.45C309.08 1221.96 307.737 1222.05 306.474 1221.7C307.688 1221.47 308.886 1221.16 310.061 1220.77C311.253 1220.28 312.34 1219.56 313.264 1218.66C313.81 1218.13 314.284 1217.52 314.673 1216.87C314.896 1216.59 315.063 1216.27 315.162 1215.93C315.261 1215.59 315.291 1215.23 315.249 1214.88C315.089 1214.4 314.32 1214.37 313.616 1214.66C312.914 1214.94 312.248 1215.31 311.63 1215.75C310.544 1216.48 309.6 1217.4 308.844 1218.47C307.595 1220.42 307.307 1221.86 307.115 1221.83Z" fill="#455A64"/>
<path d="M328.315 1221.35C327.123 1221.31 325.941 1221.59 324.888 1222.15C322.463 1223.72 320.618 1226.03 319.636 1228.75C318.655 1231.47 318.532 1234.44 319.284 1237.23C319.861 1239.38 320.629 1240.6 320.501 1240.69C319.593 1239.82 318.94 1238.71 318.612 1237.49C317.549 1234.57 317.549 1231.38 318.612 1228.46C319.663 1225.53 321.747 1223.08 324.472 1221.57C326.842 1220.42 328.539 1221.25 328.315 1221.35Z" fill="#263238"/>
<path d="M316.274 1239.8C315.392 1241.58 314.223 1243.2 312.815 1244.6C311.649 1246.21 310.22 1247.6 308.588 1248.73C309.47 1246.95 310.639 1245.33 312.047 1243.93C313.213 1242.32 314.642 1240.93 316.274 1239.8V1239.8Z" fill="#263238"/>
<path d="M320.597 1235.83C320.885 1235.83 321.206 1236.4 321.494 1237.2C321.782 1238 321.91 1238.71 321.494 1238.84C321.078 1238.96 320.693 1238.42 320.405 1237.52C320.117 1236.63 320.341 1235.89 320.597 1235.83Z" fill="#263238"/>
<path d="M321.046 1229.48C321.302 1229.48 321.27 1230.32 321.046 1231.15C320.821 1231.98 320.629 1232.65 320.341 1232.62C320.053 1232.59 319.861 1231.85 320.053 1230.96C320.245 1230.06 320.789 1229.39 321.046 1229.48Z" fill="#263238"/>
<path d="M324.76 1224.36C324.921 1224.58 324.504 1225.19 323.928 1225.77C323.351 1226.35 322.743 1226.83 322.519 1226.67C322.294 1226.51 322.519 1225.77 323.191 1225.1C323.864 1224.42 324.568 1224.14 324.76 1224.36Z" fill="#455A64"/>
<path d="M330.589 1221.89C330.589 1222.18 329.948 1222.47 329.148 1222.7C328.347 1222.92 327.611 1223.02 327.514 1222.7C327.418 1222.37 327.995 1221.93 328.892 1221.67C329.788 1221.41 330.557 1221.64 330.589 1221.89Z" fill="#455A64"/>
<path d="M396.015 1230.28L402.42 1200.98L347.626 1188.85L338.019 1231.57L341.381 1232.56C356.304 1236.75 417.567 1252.83 428.36 1252C440.241 1251.1 396.015 1230.28 396.015 1230.28Z" fill="#6168FF"/>
<path d="M357.81 1235.47C358.054 1230.67 356.488 1225.95 353.422 1222.25C350.448 1218.55 346.198 1216.11 341.509 1215.39L338.147 1230.8L357.81 1235.47Z" fill="#6168FF"/>
<path d="M417.439 1241.27C417.439 1241.27 432.715 1249.6 430.249 1251.84C427.783 1254.08 365.079 1240.15 338.019 1231.57L338.371 1230.38L411.194 1247.23C411.194 1247.23 414.205 1240.69 417.439 1241.27Z" fill="#F0F0F0"/>
<path d="M337.378 1230.16C337.664 1230.3 337.965 1230.4 338.275 1230.48L340.965 1231.21L350.828 1233.87C359.155 1236.05 370.715 1238.9 383.557 1241.78C396.399 1244.66 408.056 1246.97 416.543 1248.57L426.598 1250.36L429.32 1250.81H430.281C429.982 1250.7 429.67 1250.63 429.352 1250.59L426.63 1250.01L416.639 1247.99C408.184 1246.3 396.527 1243.86 383.717 1241.01C370.908 1238.16 359.315 1235.47 350.956 1233.39L341.061 1230.96L338.339 1230.32L337.378 1230.16Z" fill="#263238"/>
<path d="M410.81 1248.09C411.618 1246.54 412.596 1245.08 413.724 1243.74C415.026 1242.57 416.455 1241.55 417.984 1240.69C416.137 1240.94 414.448 1241.87 413.244 1243.29C411.873 1244.54 411.007 1246.25 410.81 1248.09V1248.09Z" fill="#263238"/>
<path d="M396.495 1236.27C396.495 1236.43 397.616 1235.67 398.673 1234.58C399.73 1233.49 400.53 1232.49 400.402 1232.37C400.274 1232.24 399.281 1233.01 398.193 1234.1C397.104 1235.18 396.367 1236.15 396.495 1236.27Z" fill="#263238"/>
<path d="M392.588 1232.94C392.588 1233.1 393.677 1232.72 394.83 1232.11C395.983 1231.5 396.783 1230.8 396.719 1230.64C396.655 1230.48 395.631 1230.86 394.478 1231.5C393.325 1232.14 392.588 1232.78 392.588 1232.94Z" fill="#263238"/>
<path d="M390.923 1227.15C390.923 1227.34 392.108 1227.79 393.709 1228.17C394.643 1228.5 395.64 1228.61 396.623 1228.49C395.772 1227.97 394.824 1227.64 393.837 1227.5C392.903 1227.17 391.908 1227.05 390.923 1227.15Z" fill="#263238"/>
<path d="M390.763 1223.3C391.563 1224.14 392.603 1224.71 393.741 1224.94C394.812 1225.4 396.003 1225.5 397.136 1225.23C396.103 1224.8 395.03 1224.49 393.933 1224.3C392.905 1223.88 391.845 1223.55 390.763 1223.3V1223.3Z" fill="#263238"/>
<path d="M399.409 1231.92C400.53 1232.38 401.722 1232.64 402.932 1232.69C404.243 1232.8 405.561 1232.8 406.871 1232.69C407.662 1232.64 408.446 1232.52 409.209 1232.3C409.684 1232.14 410.082 1231.81 410.33 1231.37C410.44 1231.13 410.478 1230.85 410.438 1230.59C410.399 1230.32 410.283 1230.07 410.106 1229.87C408.917 1228.9 407.429 1228.37 405.894 1228.37C404.36 1228.37 402.872 1228.9 401.683 1229.87C400.992 1230.45 400.426 1231.17 400.018 1231.98C399.85 1232.26 399.751 1232.58 399.73 1232.91C400.319 1231.89 401.089 1230.99 402.003 1230.25C402.999 1229.54 404.177 1229.13 405.398 1229.07C406.133 1228.98 406.878 1229.05 407.587 1229.26C408.297 1229.46 408.958 1229.81 409.529 1230.28C410.01 1230.83 409.529 1231.44 408.921 1231.66C408.224 1231.88 407.504 1232.02 406.775 1232.08C405.496 1232.17 404.212 1232.17 402.932 1232.08C400.786 1232.27 399.441 1231.82 399.409 1231.92Z" fill="#263238"/>
<path d="M400.274 1232.27C400.867 1231.62 401.208 1230.78 401.235 1229.9C401.329 1228.95 401.197 1228 400.851 1227.11C400.662 1226.53 400.333 1226 399.891 1225.58C399.45 1225.16 398.91 1224.85 398.321 1224.68C398.136 1224.68 397.951 1224.71 397.779 1224.78C397.606 1224.84 397.449 1224.94 397.315 1225.07C397.181 1225.2 397.074 1225.35 396.999 1225.52C396.924 1225.69 396.884 1225.87 396.88 1226.06C396.818 1226.64 396.895 1227.24 397.104 1227.79C397.396 1228.66 397.793 1229.5 398.289 1230.28C398.698 1231.03 399.28 1231.67 399.986 1232.14C399.986 1232.14 399.442 1231.34 398.705 1230.03C398.297 1229.25 397.964 1228.44 397.712 1227.59C397.392 1226.73 397.36 1225.32 398.289 1225.35C399.217 1225.39 399.89 1226.54 400.274 1227.37C400.619 1228.16 400.783 1229.01 400.755 1229.87C400.671 1230.68 400.511 1231.49 400.274 1232.27V1232.27Z" fill="#263238"/>
<path d="M341.829 1215.43C341.829 1215.43 343.431 1215.62 345.832 1216.45C348.98 1217.53 351.759 1219.48 353.849 1222.07C355.94 1224.65 357.257 1227.78 357.65 1231.09C357.938 1233.62 357.65 1235.22 357.65 1235.22C357.783 1234.87 357.869 1234.5 357.906 1234.13C358.03 1233.06 358.03 1231.99 357.906 1230.93C357.642 1227.49 356.345 1224.22 354.184 1221.54C352.023 1218.86 349.1 1216.89 345.8 1215.91C344.81 1215.6 343.791 1215.39 342.758 1215.3C342.214 1215.36 341.829 1215.36 341.829 1215.43Z" fill="#263238"/>
<path d="M352.558 1193.84C351.37 1197.5 350.376 1201.22 349.579 1204.99C348.595 1208.71 347.826 1212.48 347.274 1216.29C348.489 1212.64 349.484 1208.92 350.252 1205.15C351.261 1201.43 352.031 1197.65 352.558 1193.84Z" fill="#455A64"/>
<path d="M365.912 1231.76C370.988 1233.93 376.409 1235.19 381.924 1235.47C381.924 1235.28 378.337 1234.7 373.95 1233.68C369.563 1232.65 365.976 1231.57 365.912 1231.76Z" fill="#263238"/>
<path d="M355.184 1229.36C354.992 1229.36 355.184 1230.16 355.472 1231.09C355.76 1232.01 355.696 1232.75 355.888 1232.78C356.08 1232.81 356.369 1231.98 356.144 1230.93C355.92 1229.87 355.312 1229.23 355.184 1229.36Z" fill="#263238"/>
<path d="M352.237 1223.4C352.077 1223.4 352.237 1224.17 352.75 1224.87C353.262 1225.58 353.678 1226.06 353.839 1225.96C353.999 1225.87 353.839 1225.19 353.326 1224.49C352.814 1223.78 352.397 1223.3 352.237 1223.4Z" fill="#455A64"/>
<path d="M346.953 1219.81C346.953 1220.01 347.69 1220.17 348.426 1220.65C349.163 1221.13 349.675 1221.67 349.836 1221.57C349.996 1221.48 349.836 1220.61 348.779 1220.07C347.722 1219.52 346.953 1219.65 346.953 1219.81Z" fill="#455A64"/>
<path d="M343.078 1217.83C343.078 1217.99 343.239 1218.34 343.655 1218.6C344.071 1218.85 344.487 1218.98 344.584 1218.82C344.68 1218.66 344.584 1218.31 344.039 1218.05C343.495 1217.8 343.206 1217.67 343.078 1217.83Z" fill="#455A64"/>
<path d="M422.115 734.61L357.361 711.68L268.013 727.885L270.575 1228.49L355.376 1227.37C355.376 1227.37 355.376 1221.54 355.184 1211.36L404.918 1224.97C404.918 1224.97 453.371 1061.26 469.895 994.072C483.57 937.965 422.115 734.61 422.115 734.61ZM354.159 1129.79C352.846 1008.68 351.117 815.023 352.878 789.82C352.878 789.82 400.37 958.845 400.915 973.16C401.139 981.775 374.815 1065.45 354.159 1129.79Z" fill="#263238"/>
<path d="M354.991 1125.12C355.44 1125.12 355.824 1147.53 355.824 1175.23C355.824 1202.94 355.472 1225.39 355.024 1225.39C354.575 1225.39 354.191 1202.97 354.159 1175.23C354.127 1147.5 354.543 1125.12 354.991 1125.12Z" fill="#455A64"/>
<path d="M373.374 1215.49C373.374 1215.49 373.374 1215.11 373.598 1214.34C373.822 1213.57 374.046 1212.38 374.398 1211.13C375.135 1208.09 376.192 1203.77 377.601 1198.32C380.451 1187.08 384.518 1170.98 389.578 1151.12C399.858 1111.19 414.013 1056.2 429.673 995.481C432.875 983.216 436.077 971.207 438.96 959.71V960.062C428.552 907.03 418.144 860.626 409.914 827.545L400.306 788.667C399.185 784.184 398.321 780.661 397.68 778.195C397.424 777.042 397.2 776.146 397.04 775.473C397.003 775.154 397.003 774.832 397.04 774.512C397.172 774.801 397.279 775.101 397.36 775.409L398.128 778.099C398.833 780.565 399.794 784.056 401.043 788.507C403.509 797.57 407.031 810.764 411.227 827.289C419.745 860.306 430.441 906.709 440.817 959.742V960.062L431.562 995.834C415.55 1056.52 401.363 1111.44 390.955 1151.34L378.465 1198.42C376.992 1203.9 375.807 1208.19 375.007 1211.23C374.59 1212.64 374.302 1213.73 374.046 1214.43C373.873 1214.82 373.647 1215.17 373.374 1215.49Z" fill="#455A64"/>
<path d="M306.282 1224.33C305.834 1224.33 305.45 1123.58 305.45 999.324C305.45 875.069 305.834 774.32 306.282 774.32C306.731 774.32 307.115 875.037 307.115 999.324C307.115 1123.61 306.763 1224.33 306.282 1224.33Z" fill="#455A64"/>
<path d="M329.82 462.242L381.059 464.771C381.604 458.815 382.052 435.757 382.052 435.757C382.052 435.757 403.381 433.259 404.469 412.027C405.558 390.795 403.669 341.958 403.669 341.958C391.815 336.286 378.66 333.89 365.568 335.016C352.475 336.142 339.923 340.75 329.212 348.362L326.009 350.668L329.82 462.242Z" fill="#E6BBAC"/>
<path d="M392.973 378.241C392.423 377.649 392.118 376.871 392.118 376.064C392.118 375.256 392.423 374.478 392.973 373.886C393.213 373.457 393.549 373.089 393.954 372.81C394.359 372.531 394.824 372.35 395.31 372.28C395.797 372.21 396.294 372.253 396.761 372.405C397.229 372.558 397.655 372.816 398.007 373.16C398.358 373.504 398.626 373.925 398.789 374.389C398.952 374.853 399.006 375.348 398.946 375.837C398.887 376.325 398.716 376.793 398.446 377.204C398.177 377.616 397.816 377.96 397.392 378.209C396.8 378.781 396.011 379.104 395.189 379.11C394.366 379.116 393.572 378.805 392.973 378.241V378.241Z" fill="#263238"/>
<path d="M402.772 373.598C402.42 373.95 400.402 372.285 397.488 372.157C394.574 372.029 392.396 373.47 392.076 373.053C391.756 372.637 392.268 372.253 393.229 371.58C394.511 370.718 396.042 370.302 397.584 370.395C399.122 370.448 400.598 371.011 401.779 371.997C402.644 372.765 402.932 373.438 402.772 373.598Z" fill="#263238"/>
<path d="M365.912 374.879C366.463 375.213 366.9 375.706 367.166 376.292C367.432 376.879 367.516 377.532 367.405 378.166C367.294 378.801 366.995 379.388 366.546 379.849C366.097 380.311 365.519 380.627 364.887 380.755C364.256 380.883 363.601 380.818 363.007 380.568C362.413 380.318 361.909 379.894 361.56 379.353C361.21 378.812 361.032 378.178 361.049 377.534C361.065 376.89 361.276 376.266 361.653 375.743C362.124 375.09 362.824 374.638 363.613 374.478C364.402 374.318 365.223 374.461 365.912 374.879Z" fill="#263238"/>
<path d="M370.94 374.975C370.587 375.327 368.57 373.662 365.656 373.534C362.741 373.406 360.532 374.847 360.243 374.462C359.955 374.078 360.436 373.63 361.396 372.957C362.676 372.111 364.192 371.695 365.724 371.77C367.256 371.845 368.724 372.406 369.915 373.374C370.812 374.014 371.1 374.847 370.94 374.975Z" fill="#263238"/>
<path d="M381.764 399.634C383.282 399.077 384.887 398.795 386.504 398.801C387.272 398.801 387.881 398.609 387.977 398.193C388.005 397.427 387.84 396.667 387.496 395.983C386.824 394.029 386.119 392.044 385.415 389.962C383.407 384.864 381.926 379.574 380.995 374.174C383.493 379.044 385.499 384.15 386.984 389.418C387.656 391.531 388.329 393.517 388.969 395.503C389.413 396.51 389.515 397.635 389.258 398.705C389.137 398.993 388.949 399.248 388.709 399.449C388.47 399.65 388.186 399.79 387.881 399.858C387.445 399.915 387.003 399.915 386.568 399.858C384.965 400.059 383.34 399.983 381.764 399.634Z" fill="#263238"/>
<path d="M372.125 402.42C369.146 400.498 380.355 407.191 386.311 407.127C385.266 408.616 383.748 409.707 382.004 410.224C380.26 410.742 378.392 410.655 376.704 409.978C370.395 407.416 372.125 402.42 372.125 402.42Z" fill="white"/>
<path d="M382.148 435.469C372.341 435.278 362.812 432.179 354.767 426.566C354.767 426.566 360.756 442.066 381.988 440.945L382.148 435.469Z" fill="#D88876"/>
<path d="M330.012 374.014C329.532 374.014 314.224 372.221 316.114 390.218C318.003 408.216 335.521 400.37 335.521 399.826C335.521 399.281 330.012 374.014 330.012 374.014Z" fill="#E6BBAC"/>
<path d="M329.34 394.222C329.34 394.222 329.052 394.478 328.539 394.798C327.825 395.188 326.989 395.291 326.201 395.086C324.965 394.464 323.914 393.526 323.155 392.368C322.396 391.209 321.955 389.872 321.878 388.489C321.684 386.951 321.826 385.388 322.294 383.91C322.41 383.33 322.662 382.787 323.03 382.325C323.397 381.863 323.87 381.495 324.408 381.252C324.756 381.117 325.141 381.111 325.493 381.234C325.845 381.357 326.141 381.602 326.33 381.924C326.65 382.405 326.554 382.789 326.65 382.789C326.746 382.789 327.002 382.469 326.65 381.732C326.512 381.298 326.229 380.925 325.849 380.675C325.307 380.363 324.669 380.261 324.056 380.387C323.326 380.619 322.668 381.036 322.146 381.597C321.625 382.158 321.256 382.844 321.078 383.589C320.474 385.226 320.276 386.984 320.501 388.713C320.584 390.324 321.138 391.874 322.095 393.172C323.051 394.47 324.368 395.459 325.881 396.015C326.379 396.107 326.89 396.086 327.378 395.953C327.866 395.82 328.318 395.578 328.699 395.246C329.34 394.67 329.404 394.254 329.34 394.222Z" fill="#D88876"/>
<path d="M400.722 343.271C403.299 342.444 405.529 340.784 407.059 338.552C408.59 336.32 409.335 333.643 409.177 330.941C408.92 328.247 407.934 325.673 406.327 323.495C404.719 321.318 402.549 319.619 400.05 318.58C397.539 317.57 394.843 317.103 392.139 317.208C389.435 317.312 386.783 317.987 384.358 319.188C383.508 315.254 381.285 311.752 378.087 309.308C374.889 306.864 370.926 305.638 366.907 305.85C362.888 306.062 359.076 307.698 356.153 310.465C353.231 313.231 351.388 316.948 350.956 320.949C350.348 316.882 345.64 314.545 341.541 314.545C339.482 314.387 337.415 314.701 335.495 315.461C333.576 316.221 331.854 317.408 330.461 318.932C329.131 320.504 328.431 322.514 328.496 324.572C328.561 326.63 329.387 328.591 330.813 330.076C326.18 329.579 321.527 330.811 317.747 333.535C315.894 334.922 314.417 336.75 313.449 338.853C312.482 340.956 312.055 343.267 312.207 345.576C312.444 347.867 313.394 350.026 314.922 351.749C316.45 353.473 318.479 354.674 320.725 355.184C322.262 355.472 324.152 355.504 325.017 356.817C325.416 357.608 325.583 358.497 325.497 359.379V374.623C326.914 374.098 328.479 374.137 329.867 374.733C331.256 375.329 332.363 376.436 332.959 377.825C334.096 380.624 334.461 383.676 334.015 386.664C335.361 388.617 338.659 387.945 340.036 386.023C341.2 383.962 341.683 381.586 341.413 379.234L341.125 354.703C342.346 355.347 343.711 355.669 345.091 355.637C346.471 355.606 347.82 355.222 349.011 354.523C350.201 353.824 351.193 352.832 351.892 351.641C352.591 350.451 352.975 349.102 353.006 347.722C354.78 349.345 356.894 350.553 359.193 351.258C361.492 351.963 363.919 352.147 366.298 351.798C368.678 351.448 370.949 350.573 372.948 349.237C374.948 347.901 376.624 346.136 377.857 344.071C380.363 346.111 383.104 347.842 386.023 349.227C388.993 350.578 392.358 350.783 395.47 349.804C397.002 349.27 398.334 348.282 399.29 346.972C400.245 345.662 400.779 344.091 400.819 342.47L399.73 341.573" fill="#263238"/>
<path d="M570.196 522.96C566.732 522.96 563.345 523.987 560.464 525.912C557.583 527.837 555.338 530.573 554.012 533.774C552.686 536.975 552.339 540.497 553.015 543.895C553.691 547.293 555.36 550.414 557.809 552.864C560.259 555.314 563.381 556.982 566.779 557.658C570.177 558.334 573.699 557.987 576.9 556.661C580.101 555.336 582.836 553.09 584.761 550.21C586.686 547.329 587.713 543.942 587.713 540.477C587.718 538.176 587.268 535.896 586.389 533.769C585.51 531.642 584.22 529.709 582.592 528.081C580.965 526.454 579.032 525.164 576.905 524.285C574.778 523.406 572.498 522.956 570.196 522.96V522.96ZM570.196 537.307C569.202 537.307 568.23 537.012 567.403 536.46C566.576 535.907 565.932 535.122 565.551 534.203C565.17 533.284 565.071 532.274 565.265 531.298C565.459 530.323 565.938 529.427 566.641 528.724C567.344 528.021 568.24 527.542 569.215 527.348C570.191 527.154 571.201 527.253 572.12 527.634C573.039 528.015 573.824 528.659 574.377 529.486C574.929 530.313 575.224 531.285 575.224 532.279C575.232 532.943 575.109 533.602 574.859 534.218C574.61 534.834 574.24 535.393 573.772 535.865C573.304 536.336 572.747 536.709 572.133 536.962C571.519 537.215 570.86 537.343 570.196 537.339V537.307Z" fill="#6168FF"/>
<path d="M564.4 556.714V588.194C564.4 588.194 571.381 591.396 570.997 591.813C570.612 592.229 576.025 588.194 576.025 588.194V584.415L572.822 581.213L576.025 578.298L572.822 574.295L576.025 570.741L572.438 566.705L576.025 563.087V556.682L564.4 556.714Z" fill="#6168FF"/>
<path d="M589.699 494.939L569.684 477.037L549.508 495.195L555.465 496.123L555.977 514.474L583.23 514.954L582.429 495.739L589.699 494.939ZM569.524 511.527C568.904 511.477 568.311 511.248 567.82 510.867C567.328 510.487 566.957 509.971 566.754 509.383C566.55 508.795 566.522 508.161 566.673 507.558C566.824 506.954 567.148 506.408 567.604 505.985C568.06 505.563 568.63 505.282 569.243 505.178C569.857 505.074 570.487 505.15 571.057 505.398C571.628 505.647 572.113 506.055 572.455 506.575C572.797 507.095 572.98 507.703 572.982 508.325C572.984 508.768 572.893 509.206 572.716 509.613C572.54 510.019 572.281 510.384 571.956 510.685C571.63 510.986 571.246 511.216 570.828 511.361C570.409 511.506 569.965 511.563 569.524 511.527Z" fill="#263238"/>
<path d="M572.214 510.342C572.214 510.342 571.605 510.503 570.644 510.503C569.302 510.399 567.954 510.608 566.705 511.111C564.882 511.792 563.301 512.995 562.158 514.57C560.767 516.496 560.14 518.869 560.397 521.231C560.677 523.585 561.817 525.752 563.599 527.315C565.057 528.611 566.859 529.457 568.787 529.749C570.646 529.864 572.511 529.713 574.327 529.301C573.561 529.953 572.665 530.435 571.7 530.716C570.734 530.998 569.719 531.072 568.723 530.934C566.488 530.79 564.356 529.938 562.638 528.5C560.489 526.719 559.121 524.167 558.827 521.391C558.539 518.619 559.33 515.844 561.037 513.641C562.395 511.867 564.295 510.585 566.449 509.99C567.86 509.545 569.365 509.489 570.805 509.83C571.701 510.054 572.246 510.246 572.214 510.342Z" fill="#455A64"/>
<path d="M578.587 525.106C578.17 524.882 579.163 522.608 579.003 519.79C578.843 516.971 577.786 514.826 578.106 514.538C578.426 514.249 580.572 516.299 580.668 519.694C580.764 523.088 578.939 525.394 578.587 525.106Z" fill="#455A64"/>
<path d="M519.597 499.518C521.581 493.632 524.123 487.948 527.187 482.545C529.962 478.255 533.97 474.906 538.684 472.938C544.833 470.6 551.686 471.529 558.219 472.489L573.975 474.827C576.121 475.147 578.843 476.14 578.779 478.286C578.675 478.91 578.388 479.49 577.955 479.952C577.522 480.413 576.961 480.736 576.345 480.88C575.086 481.12 573.793 481.12 572.534 480.88C569.051 480.437 565.533 480.33 562.03 480.56C559.532 480.72 556.426 481.616 556.009 484.082C555.593 486.548 557.995 488.181 560.204 488.245C562.449 488.091 564.603 487.303 566.417 485.972L572.598 482.321C573.686 481.464 575.063 481.062 576.441 481.2C578.715 481.712 579.259 484.979 578.042 486.964C576.597 488.812 574.774 490.33 572.694 491.416C564.752 496.796 561.069 505.507 557.418 517.035" fill="#E6BBAC"/>
<path d="M519.758 497.084L484.531 587.906L447.895 503.137C436.43 462.113 385.767 459.423 385.767 459.423L335.649 453.018C317.619 445.685 288.413 451.801 276.98 458.11C262.409 466.116 249.471 490.743 246.589 508.901C246.589 508.901 196.118 639.401 204.733 653.011C213.347 666.622 267.244 719.878 267.244 719.878L259.719 747.355L345.48 752.768L354.159 718.918L355.184 755.137L435.821 760.806C432.299 728.941 426.598 696.917 425.061 687.79L418.656 594.31L419.489 575.096L420.257 573.11C427.815 585.76 437.326 601.932 449.079 622.684C472.649 664.316 496.444 653.684 510.406 636.967C516.36 629.317 520.844 620.631 523.632 611.347L558.315 513.865L519.758 497.084ZM274.098 652.915C274.098 653.428 265.451 637.511 265.451 637.511L278.069 595.88C278.069 595.88 274.098 652.435 274.098 652.915Z" fill="#6168FF"/>
<path d="M329.084 454.075L356.144 557.995L384.198 460.416L381.091 460.16L381.828 447.318L329.084 441.009V454.075Z" fill="white"/>
<path d="M327.643 455.068C327.713 455.535 327.713 456.01 327.643 456.477C327.45 457.534 327.226 458.879 326.938 460.48C326.266 464.163 325.305 469.191 324.12 475.372C322.935 481.552 321.366 489.398 319.668 497.981C318.868 502.176 317.651 507.012 320.021 510.983C322.391 514.954 327.322 516.875 332.19 518.509L333.119 518.829L332.606 519.662C328.731 526.419 329.052 535.674 331.902 543.648C333.775 548.719 335.978 553.661 338.499 558.443C340.869 563.225 343.164 567.848 345.384 572.31C349.739 581.213 353.807 589.443 357.425 596.744L356.144 597.065C356.144 585.312 356.144 575.608 356.144 568.595C356.144 565.392 356.144 562.734 356.144 560.749C356.069 559.832 356.069 558.911 356.144 557.995C356.337 558.9 356.423 559.824 356.401 560.749C356.401 562.734 356.561 565.328 356.689 568.595C356.849 575.576 357.105 585.28 357.393 597.033V599.979L356.048 597.353C352.398 590.051 348.266 581.853 343.783 573.014C341.573 568.563 339.267 563.919 336.866 559.18C334.304 554.327 332.068 549.31 330.173 544.16C327.226 535.77 326.97 526.195 331.069 518.861L331.518 520.046C329.008 519.251 326.575 518.233 324.248 517.003C321.907 515.802 319.936 513.987 318.548 511.751C317.311 509.54 316.785 507.002 317.042 504.482C317.255 502.195 317.629 499.926 318.163 497.693C319.989 489.142 321.59 481.68 322.967 475.276C324.344 468.871 325.433 464.131 326.169 460.48C326.522 458.879 326.842 457.566 327.098 456.509C327.219 456.008 327.402 455.524 327.643 455.068V455.068Z" fill="#263238"/>
<path d="M389.098 461.057C389.585 462.638 389.949 464.255 390.186 465.892C390.763 469.095 391.563 473.61 392.428 479.375C393.293 485.139 394.318 491.96 394.926 499.774C394.926 501.728 395.182 503.713 395.118 505.827C395.136 508.116 394.442 510.354 393.133 512.232C390.337 515.88 386.685 518.784 382.501 520.686V519.277C383.962 520.489 385.207 521.94 386.183 523.568C386.44 523.953 386.664 524.369 386.888 524.785C387.027 525.142 387.092 525.524 387.08 525.906V526.675C386.888 527.668 386.632 528.564 386.375 529.493C383.173 539.517 379.202 548.708 375.711 557.002C372.221 565.296 368.89 572.79 366.104 579.003C363.318 585.216 360.98 590.275 359.347 593.734L357.393 597.705C356.945 598.602 356.689 599.05 356.625 599.018C356.701 598.504 356.864 598.006 357.105 597.545C357.553 596.456 358.098 595.111 358.738 593.478L365.143 578.555C367.833 572.15 370.972 564.688 374.43 556.394C377.889 548.099 381.732 538.844 384.902 529.013C385.172 528.163 385.386 527.296 385.543 526.419V525.842C385.525 525.758 385.525 525.67 385.543 525.586L384.87 524.433C384.011 523.001 382.93 521.715 381.668 520.622L380.643 519.758L381.796 519.181C385.724 517.432 389.165 514.75 391.82 511.367C394.318 508.165 393.517 503.809 393.453 499.998C392.973 492.281 392.044 485.395 391.339 479.631C390.635 473.866 390.026 469.543 389.578 466.117C389.258 464.449 389.097 462.755 389.098 461.057Z" fill="#263238"/>
<path d="M354.159 722.889C353.678 722.889 354.159 693.49 355.152 657.303C356.144 621.115 357.361 591.781 357.938 591.781C358.514 591.781 357.938 621.147 356.945 657.367C355.952 693.586 354.735 722.889 354.159 722.889Z" fill="#263238"/>
<path d="M367.321 618.009C367.129 618.009 368.186 616.824 369.915 617.624C370.503 617.871 370.997 618.301 371.323 618.849C371.649 619.398 371.79 620.037 371.725 620.672C371.661 621.307 371.394 621.904 370.964 622.376C370.535 622.848 369.965 623.169 369.338 623.293C368.729 623.517 368.064 623.535 367.443 623.346C366.822 623.157 366.28 622.77 365.899 622.244C365.519 621.718 365.32 621.083 365.334 620.434C365.348 619.785 365.573 619.158 365.976 618.649C367.065 617.112 368.506 617.464 368.41 617.656C368.314 617.849 367.481 618.073 367.001 619.226C366.866 619.517 366.796 619.834 366.796 620.154C366.796 620.475 366.866 620.792 367.001 621.083C367.2 621.374 367.492 621.589 367.829 621.694C368.166 621.798 368.529 621.786 368.858 621.659C369.206 621.605 369.526 621.438 369.77 621.183C370.013 620.928 370.165 620.6 370.203 620.25C370.191 619.932 370.103 619.62 369.947 619.342C369.792 619.064 369.572 618.826 369.306 618.649C368.346 617.881 367.449 618.201 367.321 618.009Z" fill="#263238"/>
<path d="M367.673 651.282C367.449 651.282 368.506 650.129 370.267 650.898C370.77 651.134 371.204 651.498 371.524 651.953C371.844 652.408 372.04 652.938 372.093 653.492C372.114 654.223 371.884 654.94 371.441 655.523C370.998 656.105 370.369 656.519 369.659 656.694C368.973 656.89 368.242 656.852 367.58 656.585C366.919 656.318 366.366 655.838 366.008 655.221C365.769 654.709 365.67 654.143 365.721 653.581C365.772 653.019 365.97 652.48 366.296 652.019C367.417 650.449 368.826 650.802 368.73 651.026C368.634 651.25 367.801 651.442 367.321 652.595C367.186 652.886 367.116 653.203 367.116 653.524C367.116 653.845 367.186 654.161 367.321 654.453C367.544 654.721 367.84 654.919 368.173 655.025C368.506 655.13 368.862 655.137 369.199 655.046C369.536 654.955 369.84 654.77 370.075 654.511C370.31 654.253 370.465 653.932 370.523 653.588C370.506 653.27 370.416 652.961 370.261 652.683C370.106 652.406 369.889 652.167 369.627 651.987C368.666 651.154 367.769 651.506 367.673 651.282Z" fill="#263238"/>
<path d="M366.232 688.943C366.04 688.943 367.065 687.79 368.826 688.559C369.331 688.788 369.768 689.145 370.093 689.594C370.419 690.043 370.622 690.569 370.683 691.121C370.703 691.856 370.469 692.577 370.02 693.16C369.57 693.743 368.934 694.154 368.218 694.323C367.532 694.519 366.8 694.481 366.139 694.214C365.478 693.947 364.924 693.467 364.567 692.85C364.328 692.338 364.229 691.772 364.28 691.21C364.33 690.647 364.529 690.108 364.855 689.647C365.976 688.078 367.417 688.431 367.289 688.655C367.161 688.879 366.36 689.039 365.88 690.224C365.745 690.515 365.675 690.832 365.675 691.153C365.675 691.473 365.745 691.79 365.88 692.081C366.098 692.359 366.396 692.563 366.734 692.666C367.072 692.769 367.433 692.766 367.769 692.658C368.118 692.592 368.436 692.417 368.678 692.158C368.92 691.898 369.073 691.569 369.114 691.217C369.084 690.898 368.986 690.591 368.826 690.314C368.665 690.038 368.447 689.799 368.186 689.615C367.225 688.815 366.328 689.167 366.232 688.943Z" fill="#263238"/>
<path d="M384.198 561.678H407.768V557.995H382.949L384.198 561.678Z" fill="#263238"/>
<path d="M551.558 531.863C545.028 529.672 538.687 526.951 532.599 523.729C526.269 521.016 520.165 517.804 514.345 514.121C520.874 516.329 527.214 519.06 533.304 522.287C539.637 524.982 545.741 528.184 551.558 531.863V531.863Z" fill="#455A64"/>
<path d="M519.597 507.044C519.597 507.044 519.79 505.987 521.199 505.475C522.04 505.129 522.983 505.129 523.825 505.475C524.368 505.739 524.819 506.162 525.116 506.688C525.414 507.215 525.544 507.819 525.49 508.421C525.495 509.052 525.281 509.666 524.884 510.157C524.486 510.647 523.931 510.985 523.312 511.111C522.808 511.171 522.298 511.071 521.855 510.823C521.412 510.576 521.059 510.194 520.846 509.734C520.689 509.455 520.607 509.141 520.607 508.821C520.607 508.501 520.689 508.187 520.846 507.908C521.103 507.524 521.359 507.492 521.423 507.556C521.487 507.62 521.231 508.357 521.903 509.093C522.576 509.83 523.793 509.83 523.889 508.325C523.985 506.82 522.608 506.339 521.551 506.499C520.494 506.659 519.79 507.204 519.597 507.044Z" fill="#455A64"/>
<path d="M482.705 606.96C482.267 603.514 482.397 600.02 483.089 596.616C483.231 593.142 483.934 589.714 485.171 586.464C485.443 593.384 484.61 600.303 482.705 606.96V606.96Z" fill="#263238"/>
<path d="M490.871 605.967C489.094 603.186 487.775 600.137 486.964 596.937C485.661 593.887 484.881 590.639 484.659 587.329C487.784 593.128 489.886 599.422 490.871 605.935V605.967Z" fill="#263238"/>
<path d="M362.677 451.77C361.516 456.284 359.481 460.527 356.689 464.259L361.396 477.069H365.399L368.794 464.771C368.794 464.771 366.424 462.882 364.695 451.385L362.677 451.77Z" fill="#455A64"/>
<path d="M380.931 459.872C380.931 459.872 380.547 460.736 379.522 462.081C378.104 464.162 375.993 465.671 373.566 466.341C372.66 466.559 371.717 466.568 370.807 466.369C369.897 466.169 369.045 465.765 368.314 465.188C366.905 463.658 365.961 461.758 365.592 459.712C364.349 455.297 363.639 450.749 363.478 446.165L365.079 446.357C364.311 448.983 363.638 451.769 362.677 454.556C361.769 457.349 360.578 460.042 359.123 462.594C358.348 463.919 357.245 465.021 355.92 465.796C354.65 466.531 353.188 466.865 351.725 466.757C349.234 466.49 346.808 465.796 344.552 464.707C342.596 463.781 340.712 462.711 338.915 461.505C336.342 459.826 333.862 458.009 331.486 456.061C330.547 455.429 329.696 454.675 328.956 453.819C329.148 453.563 332.991 456.477 339.524 460.48C341.31 461.553 343.173 462.495 345.096 463.298C347.214 464.257 349.475 464.863 351.789 465.092C352.994 465.133 354.187 464.834 355.229 464.227C356.271 463.621 357.122 462.733 357.682 461.665C358.989 459.21 360.061 456.636 360.884 453.979C361.781 451.257 362.485 448.503 363.286 445.845C363.312 445.741 363.358 445.644 363.423 445.558C363.487 445.473 363.568 445.401 363.66 445.347C363.753 445.293 363.855 445.259 363.962 445.245C364.068 445.232 364.176 445.24 364.279 445.269C364.446 445.32 364.594 445.421 364.702 445.558C364.811 445.695 364.875 445.862 364.887 446.037C365.004 450.512 365.627 454.96 366.744 459.295C367.024 461.098 367.788 462.792 368.954 464.195C369.533 464.667 370.21 465.003 370.936 465.181C371.662 465.358 372.418 465.371 373.149 465.22C375.4 464.68 377.412 463.421 378.882 461.633C379.489 460.963 380.177 460.371 380.931 459.872Z" fill="#E0E0E0"/>
<path d="M361.396 477.037C360.724 478.702 348.138 527.251 348.138 527.251L356.112 557.995L370.876 506.756C370.876 506.756 365.88 475.404 365.656 476.236C365.431 477.069 361.396 477.037 361.396 477.037Z" fill="#455A64"/>
<path d="M315.281 704.411C308.772 705.689 302.1 705.905 295.522 705.051C288.933 704.721 282.442 703.315 276.307 700.888C276.307 700.408 285.018 702.425 295.778 703.386C306.538 704.347 315.249 703.866 315.281 704.411Z" fill="#263238"/>
<path d="M426.502 711.04C421.971 711.592 417.39 711.592 412.86 711.04C408.306 711.073 403.765 710.535 399.345 709.439C403.866 708.897 408.435 708.897 412.956 709.439C417.519 709.434 422.066 709.972 426.502 711.04V711.04Z" fill="#263238"/>
<path d="M278.581 550.149C278.669 550.733 278.669 551.326 278.581 551.91C278.581 553.255 278.645 554.952 278.773 557.002C278.773 561.421 278.997 567.794 279.029 575.704C279.029 591.492 278.613 613.301 277.332 637.352C276.051 661.402 274.13 683.147 272.336 698.839C271.472 706.685 270.671 713.025 270.063 717.413C269.774 719.43 269.518 721.096 269.326 722.441C269.256 723.026 269.138 723.604 268.974 724.17C268.882 723.586 268.882 722.992 268.974 722.409C268.974 721.064 269.23 719.366 269.39 717.317C269.806 712.705 270.415 706.396 271.119 698.742C272.56 683.018 274.322 661.306 275.635 637.255C276.948 613.205 277.524 591.46 277.812 575.672C277.812 567.954 278.037 561.646 278.101 557.002C278.101 554.952 278.101 553.255 278.101 551.91C278.168 551.302 278.33 550.707 278.581 550.149V550.149Z" fill="#263238"/>
<path d="M265.419 639.081C267.13 630.095 269.376 621.219 272.144 612.5C274.392 603.616 277.183 594.878 280.503 586.336C278.811 595.334 276.575 604.221 273.809 612.949C271.546 621.822 268.744 630.549 265.419 639.081Z" fill="#263238"/>
<path d="M275.347 655.99C271.332 650.454 267.766 644.607 264.682 638.504C261.106 632.664 258.021 626.537 255.459 620.186C259.487 625.713 263.054 631.561 266.124 637.672C269.7 643.512 272.785 649.639 275.347 655.99Z" fill="#263238"/>
</svg>
